<svg xmlns="http://www.w3.org/2000/svg" xmlns:xlink="http://www.w3.org/1999/xlink" version="1.1" width="87.626pt" height="120.367pt" viewBox="0 0 87.626 120.367">
<defs>
<path id="font_1_4" d="M.04499817-.122177127C.036987306-.15631104 .034988405-.16334534-.009002686-.16334534-.021011353-.16334534-.03201294-.16334534-.03201294-.18234253-.03201294-.19033814-.027008057-.19433594-.019012452-.19433594 .0079956059-.19433594 .036987306-.19134522 .06498718-.19134522 .09799194-.19134522 .13198853-.19433594 .1639862-.19433594 .16899109-.19433594 .18199158-.19433594 .18199158-.17434693 .18199158-.16334534 .17199707-.16334534 .1579895-.16334534 .10798645-.16334534 .10798645-.15631104 .10798645-.14727783 .10798645-.13523865 .1499939 .028259278 .15699768 .053268434 .16999817 .024261475 .19799805-.0107421879 .24899292-.0107421879 .36499024-.0107421879 .48999024 .13528443 .48999024 .28233338 .48999024 .37635804 .43299867 .4423828 .35699464 .4423828 .30699159 .4423828 .25898744 .40637208 .22599793 .36735536 .21598816 .42137147 .17298889 .4423828 .13598633 .4423828 .08999634 .4423828 .070999149 .4033661 .06199646 .38536073 .04399109 .35134889 .0309906 .29133607 .0309906 .28833009 .0309906 .27833558 .040985109 .27833558 .042999269 .27833558 .052993776 .27833558 .053985597 .2793274 .05999756 .30133058 .07699585 .37236024 .09700012 .42037965 .1329956 .42037965 .1499939 .42037965 .1639862 .41236878 .1639862 .37435914 .1639862 .35134889 .16099549 .3403473 .15699768 .323349L.04499817-.122177127M.22099304 .3123474C.22799683 .33935548 .25498963 .36735536 .272995 .38235475 .30799867 .41337586 .33699037 .42037965 .35398866 .42037965 .3939972 .42037965 .41799928 .38536073 .41799928 .32633973 .41799928 .26733399 .3849945 .15229798 .36698915 .11428833 .33299256 .044265748 .2849884 .011245728 .24798584 .011245728 .18199158 .011245728 .16899109 .0942688 .16899109 .10028076 .16899109 .10227966 .16899109 .104278568 .17199707 .11628723L.22099304 .3123474Z"/>
<path id="font_2_2" d="M.33499146 .63612368C.33499146 .6630554 .33299256 .6640625 .30499269 .6640625 .24099732 .6014404 .1499939 .6004486 .10899353 .6004486V.5644531C.1329956 .5644531 .19898987 .5644531 .2539978 .592453V.08203125C.2539978 .04899597 .2539978 .035995485 .1539917 .035995485H.115997318V0C.13398743 .0009918213 .25698854 .0039978029 .2939911 .0039978029 .32499696 .0039978029 .45098878 .0009918213 .47299195 0V.035995485H.43499757C.33499146 .035995485 .33499146 .04899597 .33499146 .08203125V.63612368Z"/>
<path id="font_1_3" d="M.2869873 .68333438C.2869873 .6843262 .2869873 .69433596 .27398683 .69433596 .25099183 .69433596 .17799378 .6863251 .1519928 .6843262 .14399719 .68333438 .1329956 .6823273 .1329956 .6643219 .1329956 .6523285 .14199829 .6523285 .15699768 .6523285 .20498657 .6523285 .20698548 .6453247 .20698548 .6353302L.20399475 .6153412 .05899048 .039260866C.054992677 .025253296 .054992677 .023254395 .054992677 .01725769 .054992677-.0057525637 .07499695-.0107421879 .083999637-.0107421879 .09700012-.0107421879 .11199951-.0017547608 .117996219 .010253906 .12298584 .019256592 .16799927 .20431519 .17399597 .22932434 .20799256 .22631836 .2899933 .21031189 .2899933 .14428711 .2899933 .13729859 .2899933 .13328552 .2869873 .123291019 .2849884 .11128235 .2829895 .09927368 .2829895 .088272098 .2829895 .029251099 .32299806-.0107421879 .375-.0107421879 .40499879-.0107421879 .43199159 .0052490236 .45399476 .042266847 .47898866 .08627319 .48999024 .14129639 .48999024 .14329529 .48999024 .1532898 .48098756 .1532898 .47799684 .1532898 .46798707 .1532898 .46699525 .14929199 .46398927 .13528443 .44400025 .06227112 .42099 .011245728 .3769989 .011245728 .35798646 .011245728 .34498597 .022247315 .34498597 .058273317 .34498597 .07527161 .34899903 .09828186 .35299684 .11428833 .35699464 .13128662 .35699464 .13528443 .35699464 .14529419 .35699464 .21031189 .2939911 .23931885 .20899964 .2503357 .23999024 .26834107 .27198792 .30033876 .29499818 .32435609 .34298707 .37734986 .3889923 .42037965 .43798829 .42037965 .44400025 .42037965 .44499208 .42037965 .44699098 .41937257 .45899964 .41737367 .45999146 .41737367 .46798707 .4113617 .46998597 .4103546 .46998597 .40934754 .47200013 .40734864 .42399598 .4043579 .4149933 .36535646 .4149933 .35334779 .4149933 .33735658 .42599488 .31835938 .45298768 .31835938 .47898866 .31835938 .5079956 .3403473 .5079956 .37934876 .5079956 .40934754 .4850006 .4423828 .43998719 .4423828 .4119873 .4423828 .3659973 .43437196 .2939911 .35435487 .2599945 .3163452 .22099304 .27633668 .18299866 .26133729L.2869873 .68333438Z"/>
<path id="font_1_5" d="M.45199586 .43138124C.45199586 .43537904 .44898988 .44137574 .44198609 .44137574 .43099977 .44137574 .3909912 .4013672 .37399293 .37236024 .35198976 .42637635 .31298829 .4423828 .2809906 .4423828 .16299439 .4423828 .039993287 .29434205 .039993287 .14929199 .039993287 .05126953 .09899902-.0107421879 .17199707-.0107421879 .21499634-.0107421879 .2539978 .013244629 .2899933 .04925537 .2809906 .014251709 .24798584-.1211853 .24499512-.1302185 .23699951-.1583252 .22898865-.16233826 .17298889-.16334534 .1599884-.16334534 .1499939-.16334534 .1499939-.18334961 .1499939-.18434143 .1499939-.19433594 .16299439-.19433594 .19499207-.19433594 .22999573-.19134522 .2630005-.19134522 .29699708-.19134522 .33299256-.19433594 .3659973-.19433594 .37098695-.19433594 .38398744-.19433594 .38398744-.17434693 .38398744-.16334534 .37399293-.16334534 .35798646-.16334534 .30999757-.16334534 .30999757-.15631104 .30999757-.14727783 .30999757-.14025879 .31199647-.13423157 .31399537-.12519837L.45199586 .43138124M.1749878 .011245728C.114990238 .011245728 .11099243 .088272098 .11099243 .105285648 .11099243 .1532898 .13999939 .2623291 .15699768 .30433656 .18798828 .37835694 .23999024 .42037965 .2809906 .42037965 .34599305 .42037965 .3600006 .33935548 .3600006 .33235169 .3600006 .32633973 .30499269 .107284549 .3019867 .103271488 .2869873 .07527161 .23098755 .011245728 .1749878 .011245728Z"/>
<path id="font_1_1" d="M.040985109 .2543335C.07998657 .3693695 .18899536 .3703766 .19999695 .3703766 .35099793 .3703766 .3619995 .1953125 .3619995 .11627197 .3619995 .055252077 .35699464 .038238527 .34999085 .018234253 .32798768-.05479431 .2979889-.1708374 .2979889-.19685364 .2979889-.20785523 .30299378-.21484375 .31098939-.21484375 .32398988-.21484375 .33198548-.19285584 .34298707-.15483094 .3659973-.07080078 .37599183-.0137786869 .37998963 .017227173 .38198854 .03024292 .38398744 .04324341 .3880005 .056243898 .41999818 .1552887 .48399354 .3043518 .5239868 .38337709 .5309906 .39537049 .54299929 .41737367 .54299929 .42137147 .54299929 .43138124 .5329895 .43138124 .5309906 .43138124 .5279999 .43138124 .5219879 .43138124 .5189972 .42437745 .46699525 .32936097 .4269867 .22932434 .3869934 .12828064 .38598634 .1592865 .3849945 .23532105 .34599305 .33236695 .32199098 .39337159 .28199769 .4423828 .21299744 .4423828 .08799744 .4423828 .017990113 .29034425 .017990113 .25933839 .017990113 .24932862 .026992798 .24932862 .036987306 .24932862L.040985109 .2543335Z"/>
<path id="font_2_3" d="M.5049896 .18203736H.47099305C.46798707 .16001892 .45799256 .100997928 .44499208 .09098816 .43699647 .084991458 .3600006 .084991458 .34599305 .084991458H.1619873C.2669983 .17803955 .3019867 .20603943 .3619995 .25306703 .43598939 .312088 .5049896 .374115 .5049896 .46914674 .5049896 .5900879 .39898683 .6640625 .2709961 .6640625 .14698792 .6640625 .06298828 .57710269 .06298828 .4851532 .06298828 .43414308 .10598755 .42915345 .115997318 .42915345 .13999939 .42915345 .16899109 .44615174 .16899109 .48214723 .16899109 .5001526 .1619873 .53515627 .10998535 .53515627 .14099121 .6060791 .20899964 .62805178 .2559967 .62805178 .35598756 .62805178 .4079895 .5501404 .4079895 .46914674 .4079895 .38212586 .34599305 .3130951 .31399537 .27708436L.07299805 .038986207C.06298828 .02999878 .06298828 .027999878 .06298828 0H.47499085L.5049896 .18203736Z"/>
<path id="font_1_2" d="M.18699646 .23144531C.21598816 .23144531 .2899933 .23344422 .33999635 .2544403 .4099884 .28442384 .4149933 .34339906 .4149933 .35740663 .4149933 .40138246 .3769989 .4423828 .30799867 .4423828 .19699097 .4423828 .04598999 .34539796 .04598999 .17037964 .04598999 .06829834 .10499573-.0107421879 .20298767-.0107421879 .34599305-.0107421879 .42999269 .095321658 .42999269 .10733032 .42999269 .113342288 .42399598 .12034607 .41799928 .12034607 .41299439 .12034607 .41099549 .11834717 .40499879 .1103363 .32598878 .011245728 .21699524 .011245728 .20498657 .011245728 .1269989 .011245728 .117996219 .095321658 .117996219 .12734986 .117996219 .13935852 .11898804 .17037964 .13398743 .23144531H.18699646M.13999939 .25343324C.1789856 .40538026 .28199769 .42037965 .30799867 .42037965 .35499574 .42037965 .38198854 .39138795 .38198854 .35740663 .38198854 .25343324 .22200012 .25343324 .18099976 .25343324H.13999939Z"/>
<path id="font_3_1" d="M.74398806 .2263794C.7599945 .2263794 .7839966 .2263794 .7839966 .25038148 .7839966 .27539063 .7609863 .27539063 .74398806 .27539063H.147995C.13198853 .27539063 .10798645 .27539063 .10798645 .25138856 .10798645 .2263794 .1309967 .2263794 .147995 .2263794H.74398806Z"/>
<path id="font_2_1" d="M.46299745 .2263794H.7689972C.7819977 .2263794 .80599978 .2263794 .80599978 .25038148 .80599978 .27539063 .7829895 .27539063 .7689972 .27539063H.46299745V.5821533C.46299745 .59513857 .46299745 .6191406 .43899537 .6191406 .4139862 .6191406 .4139862 .5961304 .4139862 .5821533V.27539063H.10699463C.09399414 .27539063 .069992069 .27539063 .069992069 .25138856 .069992069 .2263794 .09298706 .2263794 .10699463 .2263794H.4139862V-.08114624C.4139862-.09416199 .4139862-.11816406 .43798829-.11816406 .46299745-.11816406 .46299745-.09516907 .46299745-.08114624V.2263794Z"/>
</defs>
<path transform="matrix(1,0,0,-1,9.002,7.3619997)" stroke-width=".3985" stroke-linecap="butt" stroke-miterlimit="10" stroke-linejoin="miter" fill="none" stroke="#000000" d=""/>
<path transform="matrix(1,0,0,-1,9.002,7.3619997)" stroke-width=".3985" stroke-linecap="butt" stroke-miterlimit="10" stroke-linejoin="miter" fill="none" stroke="#000000" d="M8.30551-7.48611 34.72571-31.29974"/>
<path transform="matrix(1,0,0,-1,9.002,7.3619997)" d="M24.26093-21.86789 21.19023-15.42184 17.53166-19.48088Z"/>
<use data-text="p" xlink:href="#font_1_4" transform="matrix(9.96264,0,0,-9.96264,17.515999,34.564004)"/>
<use data-text="1" xlink:href="#font_2_2" transform="matrix(6.97385,0,0,-6.97385,22.528998,36.059007)"/>
<path transform="matrix(1,0,0,-1,9.002,7.3619997)" stroke-width=".3985" stroke-linecap="butt" stroke-miterlimit="10" stroke-linejoin="miter" fill="none" stroke="#000000" d="M34.72571-31.29974"/>
<path transform="matrix(1,0,0,-1,9.002,7.3619997)" stroke-width=".3985" stroke-linecap="butt" stroke-miterlimit="10" stroke-linejoin="miter" fill="none" stroke="#000000" d="M34.72571-31.29974 60.77162-7.41103"/>
<path transform="matrix(1,0,0,-1,9.002,7.3619997)" d="M50.50401-16.82858 43.79604-19.2738 47.48955-23.30075Z"/>
<use data-text="k" xlink:href="#font_1_3" transform="matrix(9.96264,0,0,-9.96264,60.27,37.156)"/>
<use data-text="1" xlink:href="#font_2_2" transform="matrix(6.97385,0,0,-6.97385,65.457,38.649995)"/>
<path transform="matrix(1,0,0,-1,9.002,7.3619997)" stroke-width=".3985" stroke-linecap="butt" stroke-miterlimit="10" stroke-linejoin="miter" fill="none" stroke="#000000" d="M34.72571-31.29974"/>
<path transform="matrix(1,0,0,-1,9.002,7.3619997)" stroke-width=".3985" stroke-linecap="butt" stroke-miterlimit="10" stroke-linejoin="miter" fill="none" stroke="#000000" d="M26.22168-37.8074V-65.11438"/>
<path transform="matrix(0,1,1,0,35.22368,70.758197)" d="M4.21463 0 .64343 1.34572 1.8178 0 .64343-1.34572Z"/>
<path transform="matrix(0,1,1,0,35.22368,70.758197)" stroke-width=".3985" stroke-linecap="butt" stroke-miterlimit="10" stroke-linejoin="miter" fill="none" stroke="#000000" d="M4.21463 0 .64343 1.34572 1.8178 0 .64343-1.34572Z"/>
<use data-text="q" xlink:href="#font_1_5" transform="matrix(9.96264,0,0,-9.96264,27.098,61.531)"/>
<path transform="matrix(1,0,0,-1,9.002,7.3619997)" stroke-width=".3985" stroke-linecap="butt" stroke-miterlimit="10" stroke-linejoin="miter" fill="none" stroke="#000000" d="M34.72571-31.29974V-31.816L35.34837-32.33226 35.80421-32.84853 35.97105-33.36478 35.80421-33.88104 35.34837-34.3973 34.72571-34.91356 34.10303-35.42981 33.6472-35.94608 33.48036-36.46233 33.6472-36.97859 34.10303-37.49486 34.72571-38.01111 35.34837-38.52737 35.80421-39.04362 35.97105-39.55989 35.80421-40.07614 35.34837-40.5924 34.72571-41.10866 34.10303-41.62492 33.6472-42.14119 33.48036-42.65744 33.6472-43.1737 34.10303-43.68996 34.72571-44.20622 35.34837-44.72247 35.80421-45.23874 35.97105-45.755 35.80421-46.27126 35.34837-46.78752 34.72571-47.30377 34.10303-47.82004 33.6472-48.33629 33.48036-48.85255 33.6472-49.3688 34.10303-49.88507 34.72571-50.40134 35.34837-50.91759 35.80421-51.43385 35.97105-51.9501 35.80421-52.46637 35.34837-52.98262 34.72571-53.49889 34.10303-54.01515 33.6472-54.5314 33.48036-55.04767 33.6472-55.56392 34.10303-56.08018 34.72571-56.59644 35.34837-57.1127 35.80421-57.62895 35.97105-58.14522 35.80421-58.66148 35.34837-59.17773 34.72571-59.694 34.10303-60.21025 33.6472-60.72652 33.48036-61.24277 33.6472-61.75903 34.10303-62.2753 34.72571-62.79155 35.34837-63.30782 35.80421-63.82407 35.97105-64.34033 35.80421-64.85658 35.34837-65.37285 34.72571-65.8891 34.10303-66.40536 33.6472-66.92163 33.48036-67.43788 33.6472-67.95415 34.10303-68.4704 34.72571-68.98666 35.34837-69.50291 35.80421-70.01918 35.97105-70.53545 35.80421-71.0517 35.34837-71.56796 34.72571-72.08421 34.10303-72.60048 33.6472-73.11673 33.48036-73.633 34.72571-74.68597"/>
<use data-text="&#x03b3;" xlink:href="#font_1_1" transform="matrix(9.96264,0,0,-9.96264,47.246999,61.531)"/>
<path transform="matrix(1,0,0,-1,9.002,7.3619997)" stroke-width=".3985" stroke-linecap="butt" stroke-miterlimit="10" stroke-linejoin="miter" fill="none" stroke="#000000" d=""/>
<path transform="matrix(1,0,0,-1,9.002,7.3619997)" stroke-width=".3985" stroke-linecap="butt" stroke-miterlimit="10" stroke-linejoin="miter" fill="none" stroke="#000000" d="M8.85287-97.96 34.72571-74.68597"/>
<path transform="matrix(1,0,0,-1,9.002,7.3619997)" d="M17.00227-90.62854 23.73387-88.24817 20.07932-84.18553Z"/>
<use data-text="p" xlink:href="#font_1_4" transform="matrix(9.96264,0,0,-9.96264,17.79,88.227)"/>
<use data-text="2" xlink:href="#font_2_3" transform="matrix(6.97385,0,0,-6.97385,22.802,89.722)"/>
<path transform="matrix(1,0,0,-1,9.002,7.3619997)" stroke-width=".3985" stroke-linecap="butt" stroke-miterlimit="10" stroke-linejoin="miter" fill="none" stroke="#000000" d="M34.72571-74.68597"/>
<path transform="matrix(1,0,0,-1,9.002,7.3619997)" stroke-width=".3985" stroke-linecap="butt" stroke-miterlimit="10" stroke-linejoin="miter" fill="none" stroke="#000000" d="M34.72571-74.68597 61.24648-98.23322"/>
<path transform="matrix(1,0,0,-1,9.002,7.3619997)" d="M43.15341-82.16878 46.2721-88.59154 49.90013-84.50537Z"/>
<use data-text="k" xlink:href="#font_1_3" transform="matrix(9.96264,0,0,-9.96264,60.508,88.807)"/>
<use data-text="2" xlink:href="#font_2_3" transform="matrix(6.97385,0,0,-6.97385,65.694,90.300998)"/>
<use data-text="e" xlink:href="#font_1_2" transform="matrix(9.96264,0,0,-9.96264,3.3209997,11.328003)"/>
<use data-text="&#x2212;" xlink:href="#font_3_1" transform="matrix(6.97385,0,0,-6.97385,7.9589998,7.713005)"/>
<use data-text="e" xlink:href="#font_1_2" transform="matrix(9.96264,0,0,-9.96264,72.253,11.252998)"/>
<use data-text="&#x2212;" xlink:href="#font_3_1" transform="matrix(6.97385,0,0,-6.97385,76.892,7.6380007)"/>
<use data-text="e" xlink:href="#font_1_2" transform="matrix(9.96264,0,0,-9.96264,3.907,116.773)"/>
<use data-text="+" xlink:href="#font_2_1" transform="matrix(6.97385,0,0,-6.97385,8.546,113.158008)"/>
<use data-text="e" xlink:href="#font_1_2" transform="matrix(9.96264,0,0,-9.96264,73.053,117.046009)"/>
<use data-text="+" xlink:href="#font_2_1" transform="matrix(6.97385,0,0,-6.97385,77.692,113.43101)"/>
</svg>
